<?xml version="1.0" standalone="no"?>
<!DOCTYPE svg PUBLIC "-//W3C//DTD SVG 20010904//EN"
 "http://www.w3.org/TR/2001/REC-SVG-20010904/DTD/svg10.dtd">
<svg version="1.0" xmlns="http://www.w3.org/2000/svg"
 width="1069.000000pt" height="1069.000000pt" viewBox="0 0 1069.000000 1069.000000"
 preserveAspectRatio="xMidYMid meet">
<metadata>
Created by potrace 1.11, written by Peter Selinger 2001-2013
</metadata>
<g transform="translate(0.000000,1069.000000) scale(0.100000,-0.100000)"
fill="#000000" stroke="none">
<path d="M5280 10680 c-35 -22 -172 -100 -174 -100 -2 0 -43 -23 -92 -51 -100
-58 -664 -378 -734 -417 -25 -14 -74 -42 -110 -62 -36 -20 -85 -49 -110 -62
-25 -14 -74 -42 -110 -63 -70 -40 -887 -503 -1245 -705 -199 -113 -520 -295
-595 -338 -52 -30 -113 -65 -135 -77 -33 -18 -799 -452 -909 -515 -183 -104
-460 -260 -464 -260 -2 0 -17 -9 -33 -21 l-29 -20 5 -867 c3 -477 8 -1105 10
-1397 4 -584 16 -2320 18 -2787 l2 -297 130 -71 c72 -39 153 -83 180 -98 28
-16 82 -46 120 -67 39 -21 131 -72 205 -113 74 -41 164 -90 200 -109 151 -82
196 -106 205 -113 6 -4 46 -26 90 -50 110 -59 174 -94 290 -161 151 -87 411
-232 490 -274 39 -21 99 -54 135 -75 36 -20 97 -54 135 -75 39 -21 158 -86
266 -146 108 -59 220 -121 250 -137 409 -225 566 -311 629 -345 41 -22 80 -43
85 -47 6 -4 39 -23 75 -42 36 -20 85 -47 110 -60 230 -127 519 -286 625 -343
39 -21 121 -67 182 -102 62 -34 114 -63 116 -63 2 0 60 -31 128 -70 127 -72
159 -81 195 -56 17 12 153 90 574 329 19 10 139 78 265 150 127 72 259 147
295 167 36 20 171 96 300 170 129 73 255 144 280 158 25 13 50 28 55 32 6 4
33 20 60 35 28 15 100 55 160 90 61 34 130 73 155 87 44 25 109 62 560 318
124 70 243 138 265 150 196 109 525 296 547 311 15 11 29 19 31 19 3 0 65 34
138 76 115 65 378 214 489 277 19 10 64 36 100 57 36 20 85 49 110 62 156 88
279 158 306 174 l30 19 -2 300 c-3 350 -13 1831 -20 2885 -2 404 -6 992 -9
1305 -2 314 -4 635 -5 715 l0 145 -147 80 c-81 44 -178 97 -217 118 -38 20
-88 48 -110 61 -23 13 -77 43 -121 66 -44 24 -134 73 -200 110 -66 37 -151 84
-190 105 -80 43 -73 39 -460 252 -159 88 -319 176 -355 195 -112 61 -164 90
-195 108 -16 10 -59 33 -95 52 -36 20 -85 47 -110 60 -37 21 -738 407 -905
498 -27 15 -187 103 -355 195 -168 92 -330 181 -360 197 -30 17 -68 38 -85 48
-28 16 -119 66 -210 115 -112 61 -186 101 -245 135 -36 20 -99 55 -140 77 -41
22 -91 49 -110 60 -95 54 -187 103 -191 102 -2 0 -11 -4 -19 -9z m50 -483 c14
-8 77 -42 140 -77 63 -34 144 -78 180 -97 36 -20 79 -43 95 -53 30 -17 70 -40
195 -108 36 -19 103 -56 150 -82 47 -26 117 -64 155 -85 39 -21 96 -53 128
-71 32 -19 60 -34 61 -34 2 0 55 -29 117 -63 155 -87 212 -118 294 -162 56
-31 468 -257 685 -377 52 -29 161 -88 240 -131 30 -16 69 -38 85 -47 17 -10
55 -31 85 -47 30 -17 147 -81 260 -143 256 -141 280 -154 360 -198 36 -19 116
-64 179 -99 62 -34 115 -63 117 -63 1 0 29 -15 61 -34 32 -18 87 -49 123 -68
36 -20 85 -47 110 -61 115 -63 456 -250 491 -269 21 -11 39 -23 40 -27 2 -10
7 -617 13 -1541 3 -476 9 -1247 12 -1715 3 -467 6 -1019 7 -1224 l2 -375 -90
-51 c-112 -64 -676 -385 -730 -415 -22 -12 -95 -54 -163 -92 -68 -39 -125 -68
-127 -66 -3 2 -7 362 -10 799 -3 437 -7 1147 -10 1579 l-5 785 -22 15 c-11 8
-48 30 -82 48 -34 19 -180 99 -326 179 -146 80 -287 158 -315 173 -166 91
-647 356 -685 377 -25 14 -169 93 -320 176 -151 82 -279 153 -285 157 -5 4
-50 29 -100 55 -49 27 -104 56 -122 66 -18 10 -63 35 -100 55 -37 20 -94 52
-126 70 -32 19 -60 34 -61 34 -2 0 -47 25 -101 55 -53 30 -98 55 -100 55 -2 0
-30 15 -62 34 -32 18 -85 48 -118 66 -33 18 -94 51 -135 73 -41 23 -104 58
-140 78 -77 43 -34 58 -340 -116 -118 -67 -370 -210 -560 -317 -190 -108 -361
-205 -380 -217 -19 -11 -42 -24 -50 -28 -8 -4 -53 -29 -100 -56 -47 -27 -110
-63 -140 -80 -89 -49 -1541 -872 -1590 -901 -25 -15 -69 -39 -97 -53 l-53 -27
0 -116 c-1 -278 6 -1394 15 -2448 l5 -604 -83 45 c-45 24 -98 53 -117 64 -19
11 -91 50 -160 88 -69 37 -145 79 -170 93 -25 13 -74 40 -110 60 -36 19 -78
43 -95 52 -16 10 -51 29 -78 44 -26 14 -68 38 -94 52 -25 15 -76 42 -112 61
-36 18 -69 39 -73 45 -4 7 -7 114 -8 238 0 124 -3 513 -5 865 -11 1568 -15
2094 -20 2897 l-6 857 118 67 c65 36 138 78 163 92 25 14 227 129 450 255 223
126 421 239 440 250 450 254 889 503 927 525 26 15 55 31 63 35 8 4 22 11 30
17 8 6 58 34 110 63 52 30 250 141 440 249 190 107 365 207 390 220 25 14 83
48 130 75 47 27 92 52 100 56 8 4 22 11 30 17 16 11 251 143 340 192 30 17 60
34 65 38 6 4 30 18 55 32 113 62 447 252 465 264 24 17 24 17 55 1z m260
-3540 c129 -71 258 -142 285 -157 28 -15 75 -41 105 -57 30 -17 98 -54 150
-83 52 -29 120 -66 150 -83 30 -16 78 -42 105 -57 28 -15 160 -88 295 -163
135 -74 265 -145 290 -159 25 -14 77 -42 115 -63 39 -21 104 -57 145 -80 41
-23 100 -55 130 -72 141 -76 200 -109 263 -145 38 -21 70 -38 72 -38 1 0 46
-25 100 -55 53 -30 98 -55 100 -55 1 0 45 -24 96 -53 52 -29 111 -61 132 -72
23 -12 37 -27 38 -40 2 -37 16 -1898 22 -2880 l2 -259 -60 -34 c-86 -48 -135
-76 -175 -99 -19 -11 -177 -100 -350 -199 -173 -98 -418 -237 -545 -309 -126
-73 -232 -130 -234 -129 -2 2 -4 789 -4 1749 l0 1745 -31 19 c-17 10 -62 35
-101 56 -65 35 -136 74 -210 115 -16 9 -66 36 -110 60 -44 23 -84 46 -90 50
-5 4 -50 29 -100 55 -49 27 -164 90 -255 140 -91 50 -201 111 -245 135 -44 23
-84 46 -90 50 -12 9 -178 98 -225 121 -19 9 -39 14 -45 10 -5 -5 -136 -79
-290 -166 -154 -87 -356 -202 -450 -255 -93 -53 -192 -109 -220 -125 -27 -15
-97 -55 -155 -88 -58 -33 -130 -74 -160 -91 -31 -17 -84 -47 -118 -66 l-63
-35 1 -1733 c1 -954 -1 -1736 -3 -1739 -3 -2 -29 9 -59 25 -196 108 -381 209
-428 235 -62 33 -261 143 -380 209 -25 14 -142 78 -260 143 -118 65 -217 119
-219 121 -2 2 -5 209 -6 461 -6 773 -16 2256 -18 2478 l-2 210 90 51 c138 79
755 429 800 454 22 12 105 59 185 105 266 151 455 258 490 278 41 22 217 122
670 379 179 102 345 196 370 210 230 131 223 127 244 116 12 -6 127 -69 256
-141z m-125 -1580 c50 -27 115 -63 145 -80 30 -16 75 -41 100 -54 25 -14 72
-40 105 -58 33 -18 148 -81 255 -141 107 -59 225 -124 262 -143 l68 -36 0
-1720 0 -1721 -147 -84 c-82 -47 -161 -92 -178 -101 -31 -17 -527 -298 -580
-329 -163 -93 -147 -91 -244 -35 -31 17 -87 49 -124 69 -37 20 -82 45 -100 55
-18 10 -68 37 -112 61 -44 23 -84 46 -90 50 -5 4 -44 25 -85 47 -77 41 -105
57 -319 175 -68 37 -127 68 -132 68 -10 0 -10 47 -11 2033 -1 1199 1 1410 13
1421 8 8 37 26 64 41 47 25 470 265 824 466 133 76 157 87 175 77 12 -6 62
-33 111 -61z"/>
</g>
</svg>
