<?xml version="1.0" encoding="utf-8"?>
<!-- Generator: Adobe Illustrator 19.0.0, SVG Export Plug-In . SVG Version: 6.00 Build 0)  -->
<svg version="1.1" id="Layer_1" xmlns="http://www.w3.org/2000/svg" xmlns:xlink="http://www.w3.org/1999/xlink" x="0px" y="0px"
	 viewBox="0 0 595.3 841.9" style="enable-background:new 0 0 595.3 841.9;" xml:space="preserve">
<style type="text/css">
	.st0{fill:none;stroke:#FFFFFF;stroke-width:6.5;stroke-miterlimit:10;}
	.st1{fill:#FFFFFF;stroke:#FFFFFF;stroke-miterlimit:10;}
</style>
<g>
	<defs>
		<rect id="SVGID_1_" x="134" y="470.6" width="327" height="147"/>
	</defs>
	<clipPath id="SVGID_2_">
		<use xlink:href="#SVGID_1_"  style="overflow:visible;"/>
	</clipPath>
</g>
<g>
	<polygon class="st0" points="147.6,171.8 211.4,206.9 211.9,277.8 148.6,313.7 84.8,278.7 84.3,207.7 	"/>
	<polygon class="st0" points="147.7,219.1 190.3,242.5 190.6,289.8 148.4,313.7 105.9,290.3 105.5,243 	"/>
	<polygon class="st0" points="148,242.8 165.7,252.5 165.8,303.8 148.2,313.7 130.5,304 130.4,252.7 	"/>
</g>
<g>
	<path class="st1" d="M270.8,251c0,7.2-5.8,11.1-16.7,11.1h-15.7v-40.8H254c9.8,0,14.9,3.1,14.9,10.1c0,4.3-2.6,7.8-7.7,9.1
		C267.6,241.7,270.8,245.8,270.8,251z M247.9,227.9v9.2h6.2c3.4,0,5.5-1.4,5.5-4.7c0-3.4-2-4.6-5.5-4.6H247.9z M261.3,249.7
		c0-4.1-2.7-5.8-7.3-5.8h-6.2v11.6h6.2C258.6,255.4,261.3,253.6,261.3,249.7z"/>
	<path class="st1" d="M287.5,246v-24.7h9.5v24.7c0,7,3.3,10,9.1,10c5.7,0,9-3,9-10v-24.7h9.5v24.6c0,10.4-6.3,17-18.5,17
		C293.8,262.9,287.5,256.3,287.5,246z"/>
	<path class="st1" d="M378.3,242.2V260c-3.5,1.6-8.8,2.9-14.5,2.9c-15.1,0-22.3-10.1-22.3-21.2c0-11,7.6-21.1,22.9-21.1
		c5,0,9.4,1.3,12.5,3.3l-2.2,6.6c-2.3-1.6-5.8-3-10.3-3c-8.7,0-13.4,6.4-13.4,14.2c0,8,4.3,14.3,12.8,14.3c1.9,0,3.7-0.2,5.3-0.5
		v-13.4L378.3,242.2z"/>
	<path class="st1" d="M396.1,221.3h9.5v40.8h-9.5V221.3z"/>
	<path class="st1" d="M460.1,255.3v6.8h-36.5v-5.2l23.6-28.8h-22.9v-6.8h34.9v5.7l-23.5,28.3H460.1z"/>
	<path class="st1" d="M503.9,255.4v6.7h-27v-40.8h25.8v6.7h-16.3v9.2h13.9v6.7h-13.9v11.6H503.9z"/>
</g>
</svg>
